<svg width="137" height="32" viewBox="0 0 137 32" fill="none" xmlns="http://www.w3.org/2000/svg">
<mask id="mask0_101_29" style="mask-type:alpha" maskUnits="userSpaceOnUse" x="0" y="0" width="137" height="32">
<path d="M135 0H2C0.89543 0 0 0.89543 0 2V30C0 31.1046 0.89543 32 2 32H135C136.105 32 137 31.1046 137 30V2C137 0.89543 136.105 0 135 0Z" fill="#161619"/>
</mask>
<g mask="url(#mask0_101_29)">
<path d="M135 0H2C0.89543 0 0 0.89543 0 2V30C0 31.1046 0.89543 32 2 32H135C136.105 32 137 31.1046 137 30V2C137 0.89543 136.105 0 135 0Z" fill="#22C48C"/>
<rect width="32" height="32" fill="#2FDDA1"/>
<path d="M42.0043 21H43.8487V17.2713H45.728L47.7266 21H49.7848L47.5824 16.9631C48.7805 16.4808 49.4119 15.4567 49.4119 14.0746C49.4119 12.1307 48.1591 10.8182 45.8224 10.8182H42.0043V21ZM43.8487 15.7401V12.3594H45.5391C46.9162 12.3594 47.5327 12.9908 47.5327 14.0746C47.5327 15.1584 46.9162 15.7401 45.549 15.7401H43.8487ZM55.8974 17.7884C55.8974 18.9517 55.0671 19.5284 54.2717 19.5284C53.4066 19.5284 52.8299 18.9169 52.8299 17.9474V13.3636H51.0302V18.2259C51.0302 20.0604 52.0742 21.0994 53.5756 21.0994C54.7191 21.0994 55.5245 20.4979 55.8725 19.6428H55.9521V21H57.6971V13.3636H55.8974V17.7884ZM61.3475 16.5256C61.3475 15.4219 62.0137 14.7855 62.9632 14.7855C63.8929 14.7855 64.4498 15.397 64.4498 16.4162V21H66.2495V16.1378C66.2544 14.3082 65.2104 13.2642 63.6344 13.2642C62.4909 13.2642 61.7054 13.8111 61.3574 14.6612H61.2679V13.3636H59.5478V21H61.3475V16.5256ZM74.8826 21.1491C77.1199 21.1491 78.5417 19.5732 78.5417 17.2116C78.5417 14.8452 77.1199 13.2642 74.8826 13.2642C72.6454 13.2642 71.2235 14.8452 71.2235 17.2116C71.2235 19.5732 72.6454 21.1491 74.8826 21.1491ZM74.8926 19.7074C73.6547 19.7074 73.0481 18.6037 73.0481 17.2067C73.0481 15.8097 73.6547 14.6911 74.8926 14.6911C76.1106 14.6911 76.7172 15.8097 76.7172 17.2067C76.7172 18.6037 76.1106 19.7074 74.8926 19.7074ZM81.869 16.5256C81.869 15.4219 82.5352 14.7855 83.4847 14.7855C84.4144 14.7855 84.9712 15.397 84.9712 16.4162V21H86.771V16.1378C86.7759 14.3082 85.7319 13.2642 84.1559 13.2642C83.0124 13.2642 82.2269 13.8111 81.8789 14.6612H81.7894V13.3636H80.0692V21H81.869V16.5256ZM97.6861 13.6172H99.4609C99.4261 11.897 97.9595 10.679 95.7919 10.679C93.6541 10.679 92.0483 11.8821 92.0533 13.6818C92.0533 15.1435 93.0923 15.9837 94.7678 16.4162L95.9261 16.7145C97.0249 16.9929 97.7507 17.3359 97.7557 18.1264C97.7507 18.9964 96.9254 19.5781 95.7223 19.5781C94.5689 19.5781 93.674 19.0611 93.5994 17.9922H91.7848C91.8594 20.0156 93.3658 21.1541 95.7372 21.1541C98.1783 21.1541 99.5952 19.9361 99.6001 18.1413C99.5952 16.3764 98.1385 15.571 96.6072 15.2081L95.6527 14.9695C94.8175 14.7706 93.9126 14.4176 93.9226 13.5675C93.9276 12.8018 94.6136 12.2401 95.767 12.2401C96.8658 12.2401 97.5916 12.7521 97.6861 13.6172ZM104.978 13.3636H103.472V11.5341H101.672V13.3636H100.588V14.7557H101.672V19.0014C101.662 20.4382 102.706 21.1442 104.058 21.1044C104.57 21.0895 104.923 20.9901 105.117 20.9254L104.814 19.5185C104.715 19.5433 104.511 19.5881 104.287 19.5881C103.835 19.5881 103.472 19.429 103.472 18.7031V14.7557H104.978V13.3636ZM109.782 21.1491C111.562 21.1491 112.785 20.2791 113.103 18.9517L111.423 18.7628C111.179 19.4091 110.582 19.7472 109.807 19.7472C108.643 19.7472 107.873 18.9815 107.858 17.674H113.178V17.1222C113.178 14.4425 111.567 13.2642 109.688 13.2642C107.5 13.2642 106.073 14.87 106.073 17.2266C106.073 19.6229 107.48 21.1491 109.782 21.1491ZM107.863 16.4609C107.918 15.4865 108.638 14.6662 109.712 14.6662C110.746 14.6662 111.442 15.4219 111.452 16.4609H107.863ZM117.534 21.1342C118.846 21.1342 119.438 20.3537 119.721 19.7969H119.831V21H121.601V10.8182H119.796V14.6264H119.721C119.448 14.0746 118.886 13.2642 117.539 13.2642C115.774 13.2642 114.387 14.6463 114.387 17.1918C114.387 19.7074 115.734 21.1342 117.534 21.1342ZM118.036 19.6577C116.848 19.6577 116.221 18.6136 116.221 17.1818C116.221 15.7599 116.838 14.7408 118.036 14.7408C119.194 14.7408 119.831 15.7003 119.831 17.1818C119.831 18.6634 119.184 19.6577 118.036 19.6577ZM123.518 21H125.318V13.3636H123.518V21ZM124.423 12.2798C124.995 12.2798 125.462 11.8423 125.462 11.3054C125.462 10.7635 124.995 10.326 124.423 10.326C123.847 10.326 123.379 10.7635 123.379 11.3054C123.379 11.8423 123.847 12.2798 124.423 12.2798Z" fill="#222222"/>
<path fill-rule="evenodd" clip-rule="evenodd" d="M22.1607 8H19.1792V10.9815H22.1607V8ZM16.3614 18.9728C16.3614 19.8039 15.5903 20.1236 14.6907 20.1236C13.5984 20.1236 12.8915 19.6121 12.763 18.781L10 19.2285C10.257 21.0826 11.7992 22.4891 14.6907 22.4891C17.6465 22.4891 19.3172 21.0826 19.3172 18.9728C19.3172 17.3106 18.2248 16.1598 16.1044 15.5844L14.6265 15.2009C13.7269 14.9451 13.3413 14.6255 13.3413 14.0501C13.3413 13.3468 13.9196 12.8993 14.8192 12.8993C15.6546 12.8993 16.3614 13.3468 16.4256 14.114L19.1244 13.4747C18.8031 11.5568 17.0039 10.4699 14.755 10.4699C11.9277 10.4699 10.3855 12.0682 10.3855 14.114C10.3855 15.6484 11.2851 16.8631 13.7269 17.5024L15.269 17.886C15.9758 18.0778 16.3614 18.3974 16.3614 18.9728Z" fill="#222222"/>
</g>
</svg>
