<svg width="179" height="32" viewBox="0 0 179 32" fill="none" xmlns="http://www.w3.org/2000/svg">
<g clip-path="url(#clip0_1346_79610)">
<path d="M0 2C0 0.895431 0.895431 0 2 0H32V32H2C0.895431 32 0 31.1046 0 30V2Z" fill="#2FDDA1"/>
<path fill-rule="evenodd" clip-rule="evenodd" d="M22.1607 8H19.1792V10.9815H22.1607V8ZM16.3614 18.9728C16.3614 19.8039 15.5903 20.1236 14.6907 20.1236C13.5984 20.1236 12.8915 19.6121 12.763 18.781L10 19.2285C10.257 21.0826 11.7992 22.4891 14.6907 22.4891C17.6465 22.4891 19.3172 21.0826 19.3172 18.9728C19.3172 17.3106 18.2248 16.1598 16.1044 15.5844L14.6265 15.2009C13.7269 14.9451 13.3413 14.6255 13.3413 14.0501C13.3413 13.3468 13.9196 12.8993 14.8192 12.8993C15.6546 12.8993 16.3614 13.3468 16.4256 14.114L19.1244 13.4747C18.8031 11.5568 17.0039 10.4699 14.755 10.4699C11.9277 10.4699 10.3855 12.0682 10.3855 14.114C10.3855 15.6484 11.2851 16.8631 13.7269 17.5024L15.269 17.886C15.9758 18.0778 16.3614 18.3974 16.3614 18.9728Z" fill="#222222"/>
<path d="M32 0H176.034C177.138 0 178.034 0.895431 178.034 2V30C178.034 31.1046 177.138 32 176.034 32H32V0Z" fill="#22C48C"/>
<path d="M41 10.7234H43.2571L46.2798 18.1012H46.3991L49.4219 10.7234H51.679V20.9052H49.9091V13.9102H49.8146L47.0007 20.8754H45.6783L42.8643 13.8953H42.7699V20.9052H41V10.7234Z" fill="#222222"/>
<path d="M55.6654 21.0593C55.1815 21.0593 54.7457 20.9732 54.3579 20.8008C53.9734 20.6251 53.6685 20.3666 53.4431 20.0252C53.221 19.6839 53.11 19.2629 53.11 18.7625C53.11 18.3316 53.1895 17.9753 53.3486 17.6936C53.5077 17.4118 53.7248 17.1865 53.9999 17.0174C54.275 16.8484 54.5849 16.7208 54.9296 16.6346C55.2776 16.5451 55.6372 16.4805 56.0084 16.4407C56.4559 16.3943 56.8188 16.3529 57.0972 16.3164C57.3756 16.2767 57.5778 16.217 57.7038 16.1375C57.833 16.0546 57.8976 15.927 57.8976 15.7546V15.7248C57.8976 15.3503 57.7866 15.0603 57.5645 14.8548C57.3425 14.6493 57.0226 14.5465 56.605 14.5465C56.1642 14.5465 55.8145 14.6427 55.556 14.8349C55.3008 15.0271 55.1285 15.2542 55.039 15.516L53.3586 15.2774C53.4912 14.8134 53.7099 14.4256 54.0148 14.114C54.3198 13.7991 54.6926 13.5638 55.1334 13.408C55.5743 13.249 56.0615 13.1694 56.5951 13.1694C56.963 13.1694 57.3292 13.2125 57.6938 13.2987C58.0584 13.3848 58.3915 13.5274 58.6931 13.7262C58.9947 13.9218 59.2367 14.1886 59.4189 14.5267C59.6046 14.8647 59.6974 15.2873 59.6974 15.7944V20.9052H57.9672V19.8562H57.9076C57.7982 20.0683 57.6441 20.2672 57.4452 20.4528C57.2497 20.6351 57.0028 20.7826 56.7045 20.8953C56.4095 21.0046 56.0631 21.0593 55.6654 21.0593ZM56.1327 19.7369C56.494 19.7369 56.8072 19.6656 57.0724 19.5231C57.3375 19.3773 57.5413 19.185 57.6839 18.9464C57.8297 18.7078 57.9026 18.4476 57.9026 18.1659V17.266C57.8463 17.3124 57.7502 17.3555 57.6143 17.3953C57.4817 17.435 57.3325 17.4698 57.1668 17.4997C57.0011 17.5295 56.837 17.556 56.6746 17.5792C56.5122 17.6024 56.3714 17.6223 56.252 17.6389C55.9836 17.6753 55.7433 17.735 55.5312 17.8178C55.319 17.9007 55.1517 18.0167 55.029 18.1659C54.9064 18.3117 54.8451 18.5006 54.8451 18.7326C54.8451 19.0641 54.9661 19.3143 55.208 19.4833C55.45 19.6524 55.7582 19.7369 56.1327 19.7369Z" fill="#222222"/>
<path d="M61.367 23.7688V13.2688H63.1369V14.5316H63.2413C63.3341 14.346 63.465 14.1488 63.6341 13.94C63.8031 13.7279 64.0318 13.5473 64.3201 13.3981C64.6085 13.2456 64.9764 13.1694 65.4238 13.1694C66.0138 13.1694 66.5458 13.3202 67.0197 13.6218C67.497 13.9201 67.8748 14.3626 68.1532 14.9492C68.435 15.5326 68.5758 16.2485 68.5758 17.097C68.5758 17.9355 68.4383 18.6481 68.1632 19.2348C67.8881 19.8214 67.5136 20.2688 67.0396 20.5771C66.5656 20.8853 66.0287 21.0394 65.4288 21.0394C64.9913 21.0394 64.6284 20.9665 64.34 20.8207C64.0517 20.6749 63.8197 20.4992 63.644 20.2937C63.4717 20.0849 63.3374 19.8877 63.2413 19.7021H63.1667V23.7688H61.367ZM63.1319 17.087C63.1319 17.5809 63.2015 18.0134 63.3407 18.3846C63.4833 18.7558 63.6871 19.0458 63.9522 19.2546C64.2207 19.4601 64.5455 19.5629 64.9267 19.5629C65.3244 19.5629 65.6575 19.4568 65.926 19.2447C66.1944 19.0293 66.3966 18.7359 66.5325 18.3647C66.6717 17.9902 66.7413 17.5643 66.7413 17.087C66.7413 16.6131 66.6734 16.1921 66.5375 15.8242C66.4016 15.4563 66.1994 15.168 65.9309 14.9592C65.6625 14.7504 65.3277 14.646 64.9267 14.646C64.5422 14.646 64.2157 14.7471 63.9473 14.9492C63.6788 15.1514 63.475 15.4348 63.3358 15.7994C63.1999 16.164 63.1319 16.5932 63.1319 17.087Z" fill="#222222"/>
<path d="M77.1229 13.2688V14.6609H72.733V13.2688H77.1229ZM73.8168 11.4393H75.6165V18.6083C75.6165 18.8503 75.6529 19.0359 75.7259 19.1651C75.8021 19.2911 75.9015 19.3773 76.0242 19.4237C76.1468 19.4701 76.2827 19.4933 76.4318 19.4933C76.5445 19.4933 76.6473 19.485 76.7401 19.4684C76.8362 19.4518 76.9091 19.4369 76.9588 19.4237L77.2621 20.8306C77.166 20.8638 77.0284 20.9002 76.8494 20.94C76.6738 20.9798 76.4583 21.003 76.2031 21.0096C75.7524 21.0229 75.3464 20.9549 74.9851 20.8058C74.6238 20.6533 74.3371 20.418 74.125 20.0998C73.9162 19.7816 73.8135 19.3839 73.8168 18.9066V11.4393Z" fill="#222222"/>
<path d="M81.737 21.0544C80.9912 21.0544 80.3449 20.8903 79.798 20.5622C79.2512 20.234 78.8269 19.775 78.5253 19.185C78.227 18.5951 78.0779 17.9057 78.0779 17.1169C78.0779 16.328 78.227 15.637 78.5253 15.0437C78.8269 14.4504 79.2512 13.9897 79.798 13.6616C80.3449 13.3335 80.9912 13.1694 81.737 13.1694C82.4827 13.1694 83.129 13.3335 83.6759 13.6616C84.2228 13.9897 84.6453 14.4504 84.9436 15.0437C85.2453 15.637 85.3961 16.328 85.3961 17.1169C85.3961 17.9057 85.2453 18.5951 84.9436 19.185C84.6453 19.775 84.2228 20.234 83.6759 20.5622C83.129 20.8903 82.4827 21.0544 81.737 21.0544ZM81.7469 19.6126C82.1513 19.6126 82.4893 19.5016 82.7611 19.2795C83.0329 19.0541 83.2351 18.7525 83.3676 18.3747C83.5035 17.9968 83.5715 17.5759 83.5715 17.1119C83.5715 16.6446 83.5035 16.222 83.3676 15.8441C83.2351 15.463 83.0329 15.1597 82.7611 14.9343C82.4893 14.7089 82.1513 14.5963 81.7469 14.5963C81.3326 14.5963 80.9879 14.7089 80.7128 14.9343C80.441 15.1597 80.2372 15.463 80.1013 15.8441C79.9687 16.222 79.9025 16.6446 79.9025 17.1119C79.9025 17.5759 79.9687 17.9968 80.1013 18.3747C80.2372 18.7525 80.441 19.0541 80.7128 19.2795C80.9879 19.5016 81.3326 19.6126 81.7469 19.6126Z" fill="#222222"/>
<path d="M93.9294 13.2688V14.6609H89.5395V13.2688H93.9294ZM90.6233 11.4393H92.4231V18.6083C92.4231 18.8503 92.4595 19.0359 92.5324 19.1651C92.6087 19.2911 92.7081 19.3773 92.8307 19.4237C92.9534 19.4701 93.0892 19.4933 93.2384 19.4933C93.3511 19.4933 93.4538 19.485 93.5466 19.4684C93.6428 19.4518 93.7157 19.4369 93.7654 19.4237L94.0687 20.8306C93.9725 20.8638 93.835 20.9002 93.656 20.94C93.4803 20.9798 93.2649 21.003 93.0097 21.0096C92.5589 21.0229 92.1529 20.9549 91.7917 20.8058C91.4304 20.6533 91.1437 20.418 90.9316 20.0998C90.7228 19.7816 90.62 19.3839 90.6233 18.9066V11.4393Z" fill="#222222"/>
<path d="M97.2584 16.4308V20.9052H95.4587V10.7234H97.2186V14.5664H97.3081C97.4871 14.1356 97.7638 13.7958 98.1383 13.5473C98.5162 13.2954 98.9968 13.1694 99.5801 13.1694C100.11 13.1694 100.573 13.2804 100.967 13.5025C101.362 13.7246 101.667 14.0494 101.882 14.4769C102.101 14.9045 102.21 15.4265 102.21 16.043V20.9052H100.41V16.3214C100.41 15.8077 100.278 15.4083 100.013 15.1232C99.7508 14.8349 99.3829 14.6907 98.9089 14.6907C98.5908 14.6907 98.3057 14.7603 98.0538 14.8995C97.8052 15.0354 97.6097 15.2326 97.4672 15.4911C97.328 15.7497 97.2584 16.0629 97.2584 16.4308Z" fill="#222222"/>
<path d="M103.905 20.9052V13.2688H105.704V20.9052H103.905ZM104.809 12.185C104.524 12.185 104.279 12.0906 104.074 11.9017C103.868 11.7094 103.765 11.4791 103.765 11.2106C103.765 10.9388 103.868 10.7085 104.074 10.5196C104.279 10.3273 104.524 10.2312 104.809 10.2312C105.098 10.2312 105.343 10.3273 105.545 10.5196C105.751 10.7085 105.853 10.9388 105.853 11.2106C105.853 11.4791 105.751 11.7094 105.545 11.9017C105.343 12.0906 105.098 12.185 104.809 12.185Z" fill="#222222"/>
<path d="M113.45 15.2873L111.81 15.4663C111.763 15.3006 111.682 15.1448 111.566 14.999C111.454 14.8531 111.301 14.7355 111.109 14.646C110.917 14.5565 110.681 14.5117 110.403 14.5117C110.028 14.5117 109.714 14.5929 109.458 14.7553C109.206 14.9178 109.082 15.1282 109.085 15.3867C109.082 15.6088 109.163 15.7894 109.329 15.9286C109.498 16.0678 109.776 16.1822 110.164 16.2717L111.467 16.5501C112.189 16.7059 112.726 16.9528 113.078 17.2909C113.432 17.6289 113.611 18.0714 113.615 18.6183C113.611 19.0989 113.47 19.5231 113.192 19.891C112.917 20.2556 112.534 20.5406 112.044 20.7461C111.553 20.9516 110.99 21.0544 110.353 21.0544C109.419 21.0544 108.666 20.8588 108.096 20.4677C107.526 20.0733 107.186 19.5248 107.077 18.8221L108.832 18.6531C108.911 18.9978 109.08 19.258 109.339 19.4336C109.598 19.6093 109.934 19.6971 110.348 19.6971C110.776 19.6971 111.119 19.6093 111.377 19.4336C111.639 19.258 111.77 19.0409 111.77 18.7823C111.77 18.5636 111.686 18.383 111.517 18.2404C111.351 18.0979 111.092 17.9885 110.741 17.9123L109.438 17.6389C108.706 17.4864 108.164 17.2295 107.813 16.8683C107.461 16.5037 107.287 16.043 107.291 15.4862C107.287 15.0155 107.415 14.6079 107.674 14.2632C107.935 13.9152 108.298 13.6467 108.762 13.4578C109.23 13.2655 109.768 13.1694 110.378 13.1694C111.273 13.1694 111.977 13.36 112.491 13.7411C113.008 14.1223 113.328 14.6377 113.45 15.2873Z" fill="#222222"/>
<path d="M124.327 15.2873L122.686 15.4663C122.64 15.3006 122.559 15.1448 122.443 14.999C122.33 14.8531 122.177 14.7355 121.985 14.646C121.793 14.5565 121.558 14.5117 121.279 14.5117C120.905 14.5117 120.59 14.5929 120.335 14.7553C120.083 14.9178 119.958 15.1282 119.962 15.3867C119.958 15.6088 120.04 15.7894 120.205 15.9286C120.374 16.0678 120.653 16.1822 121.041 16.2717L122.343 16.5501C123.066 16.7059 123.603 16.9528 123.954 17.2909C124.309 17.6289 124.487 18.0714 124.491 18.6183C124.487 19.0989 124.347 19.5231 124.068 19.891C123.793 20.2556 123.41 20.5406 122.92 20.7461C122.429 20.9516 121.866 21.0544 121.229 21.0544C120.295 21.0544 119.542 20.8588 118.972 20.4677C118.402 20.0733 118.063 19.5248 117.953 18.8221L119.708 18.6531C119.788 18.9978 119.957 19.258 120.215 19.4336C120.474 19.6093 120.81 19.6971 121.224 19.6971C121.652 19.6971 121.995 19.6093 122.254 19.4336C122.515 19.258 122.646 19.0409 122.646 18.7823C122.646 18.5636 122.562 18.383 122.393 18.2404C122.227 18.0979 121.969 17.9885 121.617 17.9123L120.315 17.6389C119.582 17.4864 119.04 17.2295 118.689 16.8683C118.338 16.5037 118.164 16.043 118.167 15.4862C118.164 15.0155 118.291 14.6079 118.55 14.2632C118.812 13.9152 119.175 13.6467 119.639 13.4578C120.106 13.2655 120.644 13.1694 121.254 13.1694C122.149 13.1694 122.853 13.36 123.367 13.7411C123.884 14.1223 124.204 14.6377 124.327 15.2873Z" fill="#222222"/>
<path d="M129.166 21.0544C128.403 21.0544 127.749 20.887 127.202 20.5522C126.658 20.2175 126.239 19.7551 125.944 19.1651C125.653 18.5719 125.507 17.8891 125.507 17.1169C125.507 16.3413 125.656 15.6569 125.954 15.0636C126.252 14.467 126.673 14.003 127.217 13.6715C127.764 13.3368 128.41 13.1694 129.156 13.1694C129.776 13.1694 130.324 13.2838 130.801 13.5125C131.282 13.7378 131.665 14.0577 131.95 14.472C132.235 14.883 132.397 15.3635 132.437 15.9137H130.717C130.647 15.5458 130.482 15.2393 130.22 14.994C129.961 14.7454 129.615 14.6211 129.181 14.6211C128.813 14.6211 128.49 14.7205 128.211 14.9194C127.933 15.115 127.716 15.3967 127.56 15.7646C127.408 16.1325 127.331 16.5733 127.331 17.087C127.331 17.6074 127.408 18.0548 127.56 18.4294C127.712 18.8006 127.926 19.0873 128.201 19.2894C128.48 19.4883 128.806 19.5877 129.181 19.5877C129.446 19.5877 129.683 19.538 129.892 19.4386C130.104 19.3358 130.281 19.1884 130.424 18.9961C130.566 18.8039 130.664 18.5702 130.717 18.2951H132.437C132.394 18.8354 132.235 19.3143 131.96 19.7319C131.685 20.1462 131.31 20.471 130.836 20.7063C130.362 20.9384 129.805 21.0544 129.166 21.0544Z" fill="#222222"/>
<path d="M135.575 16.4308V20.9052H133.775V10.7234H135.535V14.5664H135.624C135.803 14.1356 136.08 13.7958 136.455 13.5473C136.832 13.2954 137.313 13.1694 137.896 13.1694C138.427 13.1694 138.889 13.2804 139.283 13.5025C139.678 13.7246 139.983 14.0494 140.198 14.4769C140.417 14.9045 140.526 15.4265 140.526 16.043V20.9052H138.727V16.3214C138.727 15.8077 138.594 15.4083 138.329 15.1232C138.067 14.8349 137.699 14.6907 137.225 14.6907C136.907 14.6907 136.622 14.7603 136.37 14.8995C136.121 15.0354 135.926 15.2326 135.783 15.4911C135.644 15.7497 135.575 16.0629 135.575 16.4308Z" fill="#222222"/>
<path d="M145.602 21.0544C144.836 21.0544 144.175 20.8953 143.618 20.5771C143.064 20.2556 142.638 19.8015 142.34 19.2149C142.042 18.6249 141.893 17.9305 141.893 17.1318C141.893 16.3463 142.042 15.6569 142.34 15.0636C142.642 14.467 143.063 14.003 143.603 13.6715C144.143 13.3368 144.778 13.1694 145.507 13.1694C145.978 13.1694 146.422 13.2456 146.839 13.3981C147.26 13.5473 147.632 13.7793 147.953 14.0941C148.278 14.409 148.533 14.81 148.719 15.2973C148.904 15.7812 148.997 16.3579 148.997 17.0274V17.5792H142.738V16.3661H147.272C147.269 16.0214 147.194 15.7149 147.048 15.4464C146.902 15.1746 146.699 14.9608 146.437 14.8051C146.178 14.6493 145.877 14.5714 145.532 14.5714C145.164 14.5714 144.841 14.6609 144.562 14.8399C144.284 15.0155 144.067 15.2475 143.911 15.5359C143.759 15.8209 143.681 16.1341 143.678 16.4755V17.5345C143.678 17.9786 143.759 18.3598 143.921 18.6779C144.084 18.9928 144.311 19.2348 144.602 19.4038C144.894 19.5695 145.235 19.6524 145.626 19.6524C145.888 19.6524 146.125 19.6159 146.337 19.543C146.549 19.4668 146.733 19.3557 146.889 19.2099C147.045 19.0641 147.163 18.8834 147.242 18.668L148.923 18.8569C148.816 19.301 148.614 19.6888 148.316 20.0203C148.021 20.3484 147.643 20.6036 147.182 20.7859C146.722 20.9649 146.195 21.0544 145.602 21.0544Z" fill="#222222"/>
<path d="M150.38 20.9052V13.2688H152.1V14.5664H152.189C152.348 14.1289 152.612 13.7875 152.98 13.5423C153.348 13.2937 153.787 13.1694 154.297 13.1694C154.814 13.1694 155.25 13.2954 155.605 13.5473C155.963 13.7958 156.215 14.1356 156.36 14.5664H156.44C156.609 14.1422 156.894 13.8041 157.295 13.5522C157.7 13.297 158.178 13.1694 158.732 13.1694C159.435 13.1694 160.008 13.3915 160.452 13.8356C160.896 14.2797 161.118 14.9277 161.118 15.7795V20.9052H159.314V16.0579C159.314 15.5839 159.188 15.2376 158.936 15.0188C158.684 14.7968 158.376 14.6857 158.011 14.6857C157.577 14.6857 157.237 14.8216 156.992 15.0934C156.75 15.3619 156.629 15.7116 156.629 16.1424V20.9052H154.864V15.9833C154.864 15.5889 154.745 15.2741 154.506 15.0387C154.271 14.8034 153.963 14.6857 153.581 14.6857C153.323 14.6857 153.088 14.752 152.875 14.8846C152.663 15.0139 152.494 15.1978 152.368 15.4365C152.242 15.6718 152.179 15.9469 152.179 16.2617V20.9052H150.38Z" fill="#222222"/>
<path d="M165.002 21.0593C164.518 21.0593 164.082 20.9732 163.694 20.8008C163.31 20.6251 163.005 20.3666 162.779 20.0252C162.557 19.6839 162.446 19.2629 162.446 18.7625C162.446 18.3316 162.526 17.9753 162.685 17.6936C162.844 17.4118 163.061 17.1865 163.336 17.0174C163.611 16.8484 163.921 16.7208 164.266 16.6346C164.614 16.5451 164.973 16.4805 165.345 16.4407C165.792 16.3943 166.155 16.3529 166.433 16.3164C166.712 16.2767 166.914 16.217 167.04 16.1375C167.169 16.0546 167.234 15.927 167.234 15.7546V15.7248C167.234 15.3503 167.123 15.0603 166.901 14.8548C166.679 14.6493 166.359 14.5465 165.941 14.5465C165.5 14.5465 165.151 14.6427 164.892 14.8349C164.637 15.0271 164.465 15.2542 164.375 15.516L162.695 15.2774C162.827 14.8134 163.046 14.4256 163.351 14.114C163.656 13.7991 164.029 13.5638 164.47 13.408C164.91 13.249 165.398 13.1694 165.931 13.1694C166.299 13.1694 166.665 13.2125 167.03 13.2987C167.395 13.3848 167.728 13.5274 168.029 13.7262C168.331 13.9218 168.573 14.1886 168.755 14.5267C168.941 14.8647 169.034 15.2873 169.034 15.7944V20.9052H167.303V19.8562H167.244C167.134 20.0683 166.98 20.2672 166.781 20.4528C166.586 20.6351 166.339 20.7826 166.041 20.8953C165.746 21.0046 165.399 21.0593 165.002 21.0593ZM165.469 19.7369C165.83 19.7369 166.143 19.6656 166.409 19.5231C166.674 19.3773 166.878 19.185 167.02 18.9464C167.166 18.7078 167.239 18.4476 167.239 18.1659V17.266C167.182 17.3124 167.086 17.3555 166.95 17.3953C166.818 17.435 166.669 17.4698 166.503 17.4997C166.337 17.5295 166.173 17.556 166.011 17.5792C165.848 17.6024 165.708 17.6223 165.588 17.6389C165.32 17.6753 165.079 17.735 164.867 17.8178C164.655 17.9007 164.488 18.0167 164.365 18.1659C164.243 18.3117 164.181 18.5006 164.181 18.7326C164.181 19.0641 164.302 19.3143 164.544 19.4833C164.786 19.6524 165.094 19.7369 165.469 19.7369Z" fill="#222222"/>
</g>
<defs>
<clipPath id="clip0_1346_79610">
<rect width="178.034" height="32" fill="white"/>
</clipPath>
</defs>
</svg>
