<?xml version="1.0" encoding="utf-8"?>
<svg viewBox="16.706 16.684 79.187 27.4" xmlns="http://www.w3.org/2000/svg">
  <path d="M 24.006 40.284 C 25.406 40.284 26.606 39.784 26.606 38.484 C 26.606 37.584 26.006 37.084 24.906 36.784 L 22.506 36.184 C 18.706 35.184 17.306 33.284 17.306 30.884 C 17.306 27.684 19.706 25.184 24.106 25.184 C 27.606 25.184 30.406 26.884 30.906 29.884 L 26.706 30.884 C 26.606 29.684 25.506 28.984 24.206 28.984 C 22.806 28.984 21.906 29.684 21.906 30.784 C 21.906 31.684 22.506 32.184 23.906 32.584 L 26.206 33.184 C 29.506 34.084 31.206 35.884 31.206 38.484 C 31.206 41.784 28.606 43.984 24.006 43.984 C 19.506 43.984 17.106 41.784 16.706 38.884 L 21.006 38.184 C 21.206 39.484 22.306 40.284 24.006 40.284 Z" fill="#46C69A"/>
  <path d="M 33.706 20.184 L 33.706 25.684 L 33.706 29.584 L 33.706 43.584 L 38.306 43.584 L 38.306 29.584 L 41.706 29.584 L 41.706 25.684 L 38.306 25.684 L 38.306 20.184 L 33.706 20.184 Z" fill="#46C69A"/>
  <path d="M 47.506 33.084 L 56.106 33.084 C 55.906 30.384 54.306 29.084 52.006 29.084 C 49.506 29.084 48.006 30.484 47.506 33.084 Z M 60.906 36.284 L 47.506 36.284 C 47.806 38.984 49.906 39.984 52.006 39.984 C 54.206 39.984 55.506 38.984 56.306 37.384 L 60.206 38.884 C 58.906 41.984 55.706 43.884 52.006 43.884 C 46.706 43.884 43.006 40.184 43.006 34.484 C 43.006 28.884 46.606 24.984 52.006 24.984 C 57.306 24.984 60.906 28.684 60.906 34.484 C 60.906 34.684 60.906 36.284 60.906 36.284 Z" fill="#46C69A"/>
  <path d="M 91.206 25.684 L 86.506 25.684 L 86.506 43.484 L 91.206 43.484 L 91.206 25.684 Z" fill="#46C69A"/>
  <path d="M 73.006 39.784 C 70.206 39.784 68.106 37.784 68.106 34.584 C 68.106 31.384 70.206 29.384 73.006 29.384 C 75.906 29.384 77.906 31.384 77.906 34.584 C 77.906 37.784 75.906 39.784 73.006 39.784 Z M 82.706 38.984 L 82.706 35.384 L 82.706 16.684 L 78.006 16.684 L 78.006 27.584 C 76.706 25.884 74.406 25.184 72.306 25.184 C 67.106 25.184 63.206 28.884 63.206 34.684 C 63.206 40.884 67.006 44.084 72.206 44.084 C 74.606 44.084 76.906 43.084 78.106 41.384 C 78.206 42.284 78.206 42.984 78.406 43.584 L 82.706 43.584 L 82.706 38.984 Z" fill="#46C69A"/>
  <path d="M 91.193 16.686 L 91.179 21.386 L 95.879 21.399 L 95.893 16.699 L 91.193 16.686 Z" fill="#46C69A"/>
</svg>